<svg width="512" height="512" xmlns="http://www.w3.org/2000/svg">

 <g>
  <title>background</title>
  <rect fill="none" id="canvas_background" height="402" width="582" y="-1" x="-1"/>
 </g>
 <g>
  <title>Layer 1</title>
  <path id="svg_1" fill="#ffffff" d="m374.5,369.5l0,-88.875c0,-45.875 -24.888,-67.158005 -57.170013,-67.158005c-26.021973,0 -37.829987,14.666 -44.829987,24.859009l0,-20.826004l-49,0l0,152l49,0l0,-86.640015c0,-4.470978 0.608002,-8.852997 1.950012,-12.071991c3.576996,-8.942993 12.065979,-18.153 25.658997,-18.153c17.794983,0 25.390991,13.681992 25.390991,33.712997l0,83.152008l49,0z"/>
  <path id="svg_2" fill="#ffffff" d="m171.684006,141.033997c-16.097,0 -26.55899,11.298996 -26.55899,26.233002c0,14.666 10.194,26.233002 25.932999,26.233002l0.356995,0c16.365005,0 26.559006,-11.567001 26.559006,-26.233002c-0.35701,-15.022995 -10.193008,-26.233002 -26.290009,-26.233002z"/>
  <rect id="svg_3" y="217.5" x="145.5" width="49" height="152" fill="#ffffff"/>
  <path id="svg_4" fill="#ffffff" d="m254.5,16.5c-131.996002,0 -239,107.003998 -239,239s107.003998,239 239,239s239,-107.003998 239,-239s-107.003998,-239 -239,-239zm158.391998,397.391998c-42.307983,42.308014 -98.55899,65.608002 -158.391998,65.608002c-59.832993,0 -116.084,-23.299988 -158.391998,-65.608002c-42.308002,-42.307983 -65.608002,-98.55899 -65.608002,-158.391998c0,-59.832993 23.299999,-116.084 65.608002,-158.391998c42.307999,-42.308002 98.559006,-65.608002 158.391998,-65.608002c59.833008,0 116.084015,23.299999 158.391998,65.608002c42.308014,42.307999 65.608002,98.559006 65.608002,158.391998c0,59.833008 -23.299988,116.084015 -65.608002,158.391998z"/>
 </g>
</svg>