<svg width="512" height="512" xmlns="http://www.w3.org/2000/svg">

 <g>
  <title>background</title>
  <rect fill="none" id="canvas_background" height="402" width="582" y="-1" x="-1"/>
 </g>
 <g>
  <title>Layer 1</title>
  <path id="svg_2" fill="#ffffff" d="m256.600006,507.799988c-138.500008,-0.5 -249.300006,-114 -248.100006,-253.099991c1.1,-136.599998 111.400002,-250.099997 251.700012,-248.399997c137.099976,1.6 246.899994,114.799998 245.299988,253.7c-1.5,136 -110.799988,247.700012 -248.899994,247.799988zm-35.400009,-130.299988c-1.599991,-0.299988 -2.300003,-0.399994 -3.099991,-0.5c-19.100006,-2.700012 -37,-8.399994 -53,-19.799988c-17.100006,-12.200012 -27.600006,-28.600006 -31.900009,-48.700012c-4.399994,-20.5 -2.699997,-41.200012 0.5,-61.699997c2.199997,-14.100006 7,-27.400009 18,-37.5c1.600006,-1.5 1.5,-2.699997 0.699997,-4.699997c-6,-16.600006 -5.299988,-33.300003 -0.299988,-50c1,-3.300003 2.599991,-4.700012 6.099991,-3.400009c4.199997,1.5 8.5,2.800003 12.400009,5.100006c10.699997,6.300003 18.899994,15 26.099991,24.899994c1.800003,2.400009 3,2.800003 5.5,1.100006c6.199997,-4.300003 13.5,-5.600006 20.600006,-6.900009c17.199997,-3.199997 34.499985,-2.599991 51.800003,-1.799988c10.100006,0.5 20.100006,2.299988 29.699982,5.899994c3,1.100006 5.700012,5 8.5,3.5c2.800018,-1.399994 4.5,-5.199997 6.700012,-7.800003c8.799988,-10.599991 18.899994,-19.399994 32.5,-23.699997c4.399994,-1.399994 6.399994,-0.699997 7.899994,4c5,16.300003 5.700012,32.399994 -0.600006,48.399994c-1,2.5 -0.799988,4.300003 1.300018,6.200012c8.299988,7.699997 13.100006,17.599991 15.600006,28.5c4.299988,18.600006 5.399994,37.600006 4.199982,56.600006c-1.199982,18.199982 -7.100006,34.799988 -19.299988,48.799988c-16.399994,18.799988 -37.800018,28.100006 -61.899994,32.200012c-2.800018,0.5 -5.700012,1 -8.700012,1.5c7.100006,11.099976 10.5,22.599976 10.600006,35c0.100006,14.299988 0,28.699982 0,43c0,9.299988 0,18.599976 0,28c15.199982,-1.5 43.600006,-11.600006 63.399994,-22.400024c92.299988,-50.299988 138.899994,-154.199982 115.399994,-257.099991c-27.799988,-122.399994 -148.899994,-199.699997 -271.299988,-173.199997c-115.600006,25.099998 -195.600006,136.5 -178.200006,258.899994c8.1,56.899994 34.199999,104.5 77.400003,142.399994c28.5,25 61.5,41.700012 98.5,50.299988c2.899994,0.700012 4.199997,0.5 4.099991,-3c-0.199997,-9.799988 -0.199997,-19.699982 0,-29.5c0,-3.299988 -0.599991,-4.299988 -4.199997,-3.599976c-6.5,1.299988 -13.199997,2 -19.899994,1.599976c-21.199997,-1.099976 -38.400009,-9.5 -50.5,-27.5c-4.100006,-6.099976 -6.400009,-13.199982 -10.300003,-19.299988c-6.900002,-10.700012 -13,-22 -24.5,-28.899994c-1.5,-0.899994 -3.300003,-2.300018 -2.400002,-4.399994c0.800003,-2 3,-1.700012 4.800003,-1.900024c12.799995,-1 23.299995,3.800018 31.999992,13c4.600006,4.900024 7.5,11 11.5,16.300018c13.300003,17.699982 38.700012,25.299988 59.5,17.799988c3,-1.100006 3.900009,-2.600006 4.300003,-5.699982c1.199997,-10.5 3.199997,-20.799988 10.5,-30z"/>
 </g>
</svg>