<svg width="512" height="512" xmlns="http://www.w3.org/2000/svg">

 <g>
  <title>background</title>
  <rect fill="none" id="canvas_background" height="402" width="582" y="-1" x="-1"/>
 </g>
 <g>
  <title>Layer 1</title>
  <path fill="#ffffff" id="svg_2" d="m259.100006,8.8c138.399994,-0.7 252.300018,114.399997 249,255.100024c-3,134.099976 -114.100006,245.099976 -252.5,243.399963c-136.600006,-1.699982 -249.300006,-115.5 -245.700006,-255.999985c3.400001,-133.5 113.500002,-243.100003 249.200006,-242.500003zm-218.900005,249.599994c1.200001,125.300018 102.799999,221.800018 222.799999,219.600006c116.299988,-2.100006 214.700012,-97 214.600006,-220.100006c0,-125.400009 -102.5,-222.199993 -222.800003,-219.899994c-116.400009,2.299999 -213.900002,97.300003 -214.600002,220.399994z"/>
  <path fill="#ffffff" id="svg_3" d="m402,150.600006c0,71.099991 0,141.899994 0,213c-95.100006,0 -190.199997,0 -285.600014,0c0,-70.800018 0,-141.699997 0,-213c94.900017,0 190.000008,0 285.600014,0zm-142.200012,130.100006c-6.699997,-5.600006 -13.099991,-10.700012 -19.099991,-16.200012c-2.800003,-2.599976 -4.600006,-2.399994 -7.5,-0.099976c-23.5,19.099976 -47.200012,38 -70.700012,57.099976c-1.299988,1 -2.099991,3.300018 -2.199997,5c-0.199997,9.800018 0.100006,19.700012 -0.199997,29.5c-0.199997,4.600006 1.199997,5.900024 5.800003,5.800018c63.199997,-0.200012 126.299988,-0.100006 189.5,-0.100006c1.699982,0 3.5,0 5.5,0c0,-13.600006 0.100006,-26.5 -0.100006,-39.299988c0,-1.200012 -0.899994,-2.900024 -2,-3.600006c-26.100006,-18.600006 -52.399994,-37.200012 -78.700012,-55.800018c-6.699982,5.899994 -13.299988,11.600006 -20.299988,17.700012zm-0.5,-41.800018c29.600006,-28.699997 58.700012,-57 88.799988,-86.199997c-59.199982,0 -116.599991,0 -173.999985,0c28.200012,28.5 56.100006,56.800003 85.199997,86.199997zm101.300018,73.399994c0,-40 0,-79.199997 0,-119.099991c-25.600006,22.199997 -50.699982,43.899994 -76,65.899979c25.699982,18.000031 50.600006,35.400024 76,53.200012zm-128.100006,-54.799988c-23.899994,-20.300003 -47.399994,-40.300003 -71.699997,-61c0,39.899994 0,78.600006 0,118.299988c24.199997,-19.299988 47.800003,-38.199982 71.699997,-57.299988z"/>
 </g>
</svg>